<?xml version="1.0" encoding="utf-8"?>
<!-- Generator: Adobe Illustrator 25.2.3, SVG Export Plug-In . SVG Version: 6.00 Build 0)  -->
<svg version="1.1" id="Capa_1" xmlns="http://www.w3.org/2000/svg" xmlns:xlink="http://www.w3.org/1999/xlink" x="0px" y="0px"
	 viewBox="0 0 600 600" style="enable-background:new 0 0 600 600;" xml:space="preserve">
<style type="text/css">
	.st0{fill:#00203F;}
	.st1{font-family:'Impact';}
	.st2{font-size:169px;}
	.st3{letter-spacing:6;}
	.st4{fill:#41B883;}
	.st5{fill:#34495E;}
	.st6{fill:#FFFFFF;stroke:#34495E;stroke-width:4;stroke-miterlimit:10;}
	.st7{font-size:29px;}
</style>
<text transform="matrix(1 0 0 1 69.7268 562.4332)" class="st0 st1 st2 st3">HOUSE</text>
<text transform="matrix(1 0 0 1 76.416 173.7651)" class="st0 st1 st2 st3">CRAZY</text>
<g>
	<path class="st4" d="M329.9,246.5l-29.4,50.9l-29.4-50.9h-97.9l127.4,220.6l127.4-220.6H329.9z"/>
	<path class="st5" d="M329.9,246.5l-29.4,50.9l-29.4-50.9h-47l76.4,132.3l76.4-132.3H329.9z"/>
	<circle class="st6" cx="208" cy="221.7" r="72"/>
	<circle class="st6" cx="389" cy="221.7" r="72"/>
	<g>
		<circle class="st4" cx="230.9" cy="242.6" r="36"/>
		<circle class="st5" cx="250.3" cy="252.4" r="12.6"/>
	</g>
	<circle class="st4" cx="362.2" cy="206.6" r="36"/>
	<circle class="st5" cx="349.6" cy="194" r="12.6"/>
	<g>
		<g>
			<g>
				<path class="st5" d="M193.3,374.9c-4.7,2.5-9.4,5.4-12.5,9.8s-4.5,10.3-2.2,15.1c1.1,2.4,3,4.3,5.1,5.8
					c10.7,7.7,25.9,5.2,37.4-1.1s22.9-13.4,32.5-22.4c9.7-9.1,21.2-17.6,37.5-2.8c1.6,1.4,3.5,2.5,4.6,4.4
					c3.8,6.3-0.6,14.5-5.8,19.7c-20.5,20.6-52.6,24.8-81.4,20.8c-9.4-1.3-19.1-3.6-26.1-9.9c-7-6.3-19.3-29.1,10.9-39.8"/>
				<g>
					<path class="st5" d="M191.9,372.4c-9.6,5.1-20.5,13.9-17.3,26.2c2.9,11.2,16.4,15.9,26.8,15.5c13.2-0.5,25-7.5,35.8-14.4
						c5.4-3.4,10.5-7.1,15.4-11.2c4.4-3.7,8.3-8,13.3-10.8c3.8-2.1,8-3,12.2-1.8c5.7,1.7,16,7.9,14.8,14.7
						c-1,5.7-6.1,10.3-10.3,13.7c-5.1,4.2-11,7.6-17.1,10.1c-11.3,4.7-23.5,6.7-35.7,6.9c-12.2,0.2-26.2-0.4-37.4-5.6
						c-7.1-3.3-12.6-9.3-14-17.2c-1.8-10.5,7.3-16.8,16-20.2c4.7-1.8,2.8-9.5-2.1-7.7c-9.4,3.3-19.1,8.9-21.8,19.3
						c-1.9,7.2,0.2,15,4.1,21.2c5.6,8.8,15.1,13.5,25.1,15.7c13,2.9,26.8,3.6,40,2.3c12.9-1.2,25.7-4.4,37.1-10.6
						c10.2-5.6,23-15.1,24.5-27.5c0.9-7.3-3.3-11.5-8.6-15.8c-4.8-3.9-10.2-7.2-16.5-7.8c-10.9-1.1-19.2,6.3-26.7,13.1
						c-6.9,6.2-14.6,11.5-22.5,16.2c-7,4.2-14,8.2-22.1,9.5c-7.8,1.3-18.8,0.1-23-7.7c-4.9-9.2,6-17.4,12.8-21.1
						C197.9,375.6,195.1,370.7,191.9,372.4L191.9,372.4z"/>
				</g>
			</g>
		</g>
		<g>
			<g>
				<path class="st5" d="M407.4,374.9c4.7,2.5,9.4,5.4,12.5,9.8c3.1,4.3,4.5,10.3,2.2,15.1c-1.1,2.4-3,4.3-5.1,5.8
					c-10.7,7.7-25.9,5.2-37.4-1.1S356.6,391,347,382c-9.7-9.1-21.2-17.6-37.5-2.8c-1.6,1.4-3.5,2.5-4.6,4.4
					c-3.8,6.3,0.6,14.5,5.8,19.7c20.5,20.6,52.6,24.8,81.4,20.8c9.4-1.3,19.1-3.6,26.1-9.9c7-6.3,19.3-29.1-10.9-39.8"/>
				<g>
					<path class="st5" d="M406,377.3c6.6,3.6,14.6,9.2,13.8,17.8c-0.7,7.9-10.6,11.3-17.4,11.4c-15,0.4-29.1-9.5-40.7-17.9
						c-9.5-6.8-17.9-18.3-29.8-21c-5.1-1.2-10.2-0.5-14.9,1.6c-5.5,2.5-13,7.4-16,12.8c-6.5,11.8,5.7,24.2,14.3,30.7
						c10.4,7.9,22.8,12.6,35.6,14.9c13.4,2.4,27,2.4,40.5,0.6c11.2-1.5,24-4.1,31.7-13.2c5-5.9,8.4-13.8,7.7-21.6
						c-1.1-12.3-11.7-19.1-22.4-22.9c-4.9-1.7-6.9,5.9-2.1,7.7c8,3.1,16.9,8.8,16.2,18.5c-0.4,5.3-3.2,10.7-7,14.3
						c-9.2,8.6-24.9,9.6-36.9,10.1c-12.2,0.5-24.6-0.7-36.3-4.3c-11.2-3.5-23.1-9.5-30.5-18.9c-1.7-2.1-3.4-4.8-3.8-7.4
						c-0.7-4.2,1.7-6,4.6-8.5c4.9-4.1,10.5-7.9,17.2-6.5c4.1,0.9,7.8,3.5,11,6.1c5.2,4.3,10,8.9,15.5,12.9
						c10.5,7.6,22.6,15.7,35.4,18.5c11.7,2.5,27.7,0.4,33.6-11.6c6.3-13-6.1-23.7-16.2-29.1C405.6,370.7,402.8,375.6,406,377.3
						L406,377.3z"/>
				</g>
			</g>
		</g>
	</g>
</g>
<text transform="matrix(1 0 0 1 79.0215 32.4727)" class="st0 st1 st7">THE</text>
<text transform="matrix(1 0 0 1 468.468 591.4919)" class="st0 st1 st7">TEAM</text>
</svg>
